<?xml version="1.0" standalone="no"?>
<!DOCTYPE svg PUBLIC "-//W3C//DTD SVG 20010904//EN"
 "http://www.w3.org/TR/2001/REC-SVG-20010904/DTD/svg10.dtd">
<svg version="1.0" xmlns="http://www.w3.org/2000/svg"
 width="276.000000pt" height="276.000000pt" viewBox="0 0 276.000000 276.000000"
 preserveAspectRatio="xMidYMid meet">
<metadata>
Created by potrace 1.11, written by Peter Selinger 2001-2013
</metadata>
<g transform="translate(0.000000,276.000000) scale(0.100000,-0.100000)"
fill="#000000" stroke="none">
<path d="M392 1803 l4 -828 27 -93 c51 -177 140 -324 268 -448 91 -87 142
-122 261 -179 149 -72 225 -88 413 -89 138 -1 172 2 245 22 290 79 531 282
652 550 17 37 42 110 56 162 l27 95 3 818 3 817 -981 0 -981 0 3 -827z m884
690 c-64 -221 -31 -425 93 -580 21 -26 78 -91 126 -143 111 -122 159 -195 192
-295 22 -68 26 -98 27 -205 1 -142 -18 -222 -81 -342 -82 -158 -265 -301 -425
-333 -18 -3 -41 -9 -50 -11 -15 -4 -18 1 -18 29 0 34 2 35 53 47 202 46 379
220 436 430 24 84 28 225 10 312 -19 93 -83 211 -156 288 -112 120 -236 177
-400 187 l-93 6 0 -75 0 -76 93 -4 c77 -3 103 -9 159 -35 241 -113 339 -396
223 -642 -56 -117 -184 -225 -295 -247 l-30 -7 0 237 0 236 100 0 101 0 -3 68
-3 67 -97 3 -98 3 0 123 c0 139 2 136 -82 136 -69 0 -68 1 -68 -136 l0 -124
-100 0 -100 0 0 -70 0 -70 100 0 100 0 0 -451 0 -451 -48 27 c-143 83 -272
223 -347 378 -82 170 -78 126 -82 980 l-4 757 386 0 c363 0 386 -1 381 -17z
m952 -60 l-3 -78 -412 -3 c-472 -3 -429 -13 -392 96 l21 62 394 0 395 0 -3
-77z m2 -188 l0 -75 -409 0 c-251 0 -412 4 -416 10 -3 5 -8 39 -12 75 l-6 65
422 0 421 0 0 -75z m-5 -185 l0 -75 -359 -3 c-332 -2 -360 -1 -372 15 -24 31
-74 120 -74 132 0 8 106 11 403 9 l402 -3 0 -75z m3 -187 l-3 -78 -269 -3
-270 -2 -44 42 c-24 24 -57 60 -74 81 l-30 37 347 0 346 0 -3 -77z m2 -188 l0
-75 -219 0 -219 0 -12 30 c-7 17 -26 49 -41 70 -16 22 -29 42 -29 45 0 3 117
5 260 5 l260 0 0 -75z m-2 -187 l3 -78 -189 0 -188 0 -13 58 c-7 31 -15 67
-18 80 l-5 22 203 -2 204 -3 3 -77z m0 -185 l-3 -78 -177 -3 -178 -2 0 33 c0
19 -3 55 -6 81 l-7 46 187 0 187 0 -3 -77z m2 -150 c0 -21 -3 -55 -6 -75 l-7
-38 -189 0 c-173 0 -190 1 -184 17 4 9 9 43 13 75 l6 58 183 0 184 0 0 -37z
m-17 -150 c2 -5 -3 -39 -12 -78 l-16 -70 -207 -3 -207 -2 20 47 c11 27 27 63
34 81 l14 32 185 0 c102 0 187 -3 189 -7z m-60 -220 c-8 -21 -26 -57 -40 -80
l-25 -43 -224 0 c-215 0 -224 1 -215 18 5 10 17 24 25 31 8 7 29 35 46 62 l32
49 209 0 208 0 -16 -37z m-93 -162 c0 -5 -30 -41 -68 -80 l-67 -71 -273 0
c-149 0 -272 2 -272 4 0 2 24 17 53 34 28 16 79 50 112 75 l60 46 228 1 c125
0 227 -4 227 -9z m-210 -201 c-139 -108 -416 -173 -605 -141 -110 19 -105 15
-105 80 l0 58 58 10 c31 6 197 11 367 11 309 2 310 2 285 -18z"/>
</g>
</svg>
